<svg width="262" height="342" viewBox="0 0 262 342" fill="none" xmlns="http://www.w3.org/2000/svg">
<path d="M12.093 210.879C-9.72136 165.935 2.36478 123.622 23.435 78.1628C57.9215 3.75797 168.788 9.63662 192.933 2.44911C217.175 -4.54175 247.563 6.89901 269.511 31.2777C291.675 55.7645 305.526 93.1011 320.342 127.939C335.283 162.689 350.971 194.827 351.573 222.869C352.176 250.91 441.927 505.299 426.574 526.717C411.313 548.335 384.482 500.535 364.259 505.506C343.821 510.366 417.368 688.7 394.332 672.13C374.523 658.144 200.788 357.755 152.122 273.207C144.222 259.483 130.348 252.507 115.528 252.674C83.8754 253.031 30.048 247.871 12.093 210.879Z" fill="#DCF1F2"/>
</svg>
