<svg width="198" height="303" viewBox="0 0 198 303" fill="none" xmlns="http://www.w3.org/2000/svg">
<path d="M137.064 20.3679C159.6 41.7978 172.1 82.0705 182.84 123.513C193.402 165.198 202.029 208.058 195.517 247.148C188.827 286.241 166.819 321.565 140.058 336.165C113.122 350.999 81.4329 345.348 50.9752 342.756C20.5175 340.403 -8.53089 340.876 -27.7204 322.739C-46.91 304.607 -56.2407 267.871 -63.4591 231.607C-70.8557 195.339 -76.3115 159.547 -70.1493 127.517C-63.8123 95.2578 -46.0321 66.5256 -24.0238 45.0957C-2.1938 23.4319 23.686 9.06585 52.9127 2.94239C82.1359 -3.18107 114.531 -0.82347 137.064 20.3679Z" fill="#DCF1F2"/>
</svg>
