<svg width="37" height="31" viewBox="0 0 37 31" fill="none" xmlns="http://www.w3.org/2000/svg">
<path d="M35.221 10.9744L24.056 10.8283V10.8207H0.921732C0.838503 10.8207 0.756595 10.8301 0.676448 10.8493C0.596301 10.8681 0.520998 10.8955 0.450099 10.9317C0.37964 10.9682 0.316227 11.0117 0.260301 11.0626C0.204374 11.1133 0.158136 11.1697 0.121585 11.2312C0.0850347 11.2927 0.0594934 11.3571 0.0449613 11.4247C0.0304293 11.492 0.0273467 11.5596 0.0357136 11.628C0.0445211 11.696 0.0643376 11.7618 0.0956036 11.8255C0.126429 11.8887 0.167824 11.9477 0.218906 12.0016L17.8217 30.5791L35.9142 12.1658C35.967 12.1119 36.0097 12.0533 36.0423 11.9897C36.0749 11.926 36.0961 11.8598 36.1057 11.7911C36.1159 11.7227 36.1137 11.6544 36.1 11.5864C36.0859 11.518 36.0613 11.4529 36.0247 11.3907C35.9886 11.3285 35.9424 11.2713 35.8864 11.2196C35.831 11.1683 35.7671 11.1241 35.6962 11.0872C35.6249 11.0504 35.5491 11.0225 35.4685 11.0033C35.3875 10.9842 35.3052 10.9744 35.221 10.9744Z" fill="#A3E5EA"/>
<path d="M0.890496 10.0912H34.7525C34.8388 10.0912 34.9234 10.0814 35.0057 10.0612C35.0885 10.0413 35.166 10.012 35.2383 9.97363C35.3105 9.93493 35.3743 9.889 35.4302 9.8351C35.4866 9.78121 35.532 9.72226 35.5672 9.65751C35.602 9.59277 35.6253 9.5255 35.6363 9.45533C35.6478 9.38516 35.6469 9.31536 35.6333 9.24519C35.62 9.17538 35.5945 9.10847 35.5575 9.04481C35.5205 8.98079 35.473 8.92256 35.4153 8.87012L26.3296 0.579102H8.25652L0.228624 8.87012C0.170936 8.92256 0.123817 8.98079 0.0868261 9.04481C0.0498351 9.10847 0.024294 9.17538 0.0110829 9.24519C-0.00256836 9.31499 -0.00344915 9.38516 0.00756 9.45497C0.0190096 9.52514 0.0419086 9.59241 0.077138 9.65715C0.111927 9.7219 0.157285 9.78085 0.213211 9.83474C0.269138 9.88863 0.333432 9.93457 0.405652 9.97327C0.477872 10.0116 0.554936 10.0409 0.637725 10.0612C0.720074 10.0811 0.804624 10.0912 0.890496 10.0912Z" fill="#C4DEE0"/>
<path d="M26.2878 10.0912H11.5884L11.1158 8.11563L17.8244 0.579102L26.2878 10.0912Z" fill="#EBFDFF"/>
<path d="M26.9647 0.579102L35.4144 8.87012C35.4721 8.92256 35.5197 8.98079 35.5567 9.04481C35.5937 9.10847 35.6188 9.17538 35.6324 9.24519C35.6461 9.31499 35.647 9.38516 35.6359 9.45497C35.6245 9.52514 35.6016 9.59241 35.5664 9.65715C35.5311 9.7219 35.4858 9.78085 35.4299 9.83474C35.3739 9.88863 35.3101 9.93457 35.2379 9.97327C35.1656 10.0116 35.0881 10.0409 35.0058 10.0612C34.923 10.0811 34.8389 10.0912 34.7526 10.0912H23.3629L23.8174 8.58402L24.1111 7.64724L26.2583 0.579102H26.9647Z" fill="#C4DEE0"/>
<path d="M23.4821 10.8229L17.8217 30.5791L35.9141 12.1658C35.967 12.1119 36.0097 12.0533 36.0423 11.9897C36.0749 11.926 36.096 11.8598 36.1057 11.7911C36.1158 11.7228 36.1136 11.6544 36.1 11.5864C36.0859 11.518 36.0612 11.4529 36.0247 11.3907C35.9886 11.3285 35.9423 11.2714 35.8864 11.2196C35.8309 11.1683 35.7671 11.1242 35.6962 11.0873C35.6248 11.0504 35.5491 11.0225 35.4685 11.0034C35.3875 10.9842 35.3051 10.9744 35.221 10.9744L23.4821 10.8229Z" fill="#D3FCFF"/>
<path d="M17.8243 0.579102L11.5883 10.0912L8.25647 0.579102H17.8243Z" fill="#94B3B6"/>
<path d="M11.5857 10.8229L17.8217 30.5791L24.0578 10.8229H11.5857Z" fill="#BCEFF3"/>
<path d="M24.0577 10.0912L17.8217 0.579102H26.9646L24.0577 10.0912Z" fill="#94B3B6"/>
</svg>
