<svg width="28" height="36" viewBox="0 0 28 36" fill="none" xmlns="http://www.w3.org/2000/svg">
<path d="M10.325 24.125L14 20.45L17.675 24.125L20.125 21.675L16.45 18L20.125 14.325L17.675 11.875L14 15.55L10.325 11.875L7.875 14.325L11.55 18L7.875 21.675L10.325 24.125ZM14 35.5C9.94583 34.4792 6.59925 32.1528 3.96025 28.521C1.32008 24.8903 0 20.8583 0 16.425V5.75L14 0.5L28 5.75V16.425C28 20.8583 26.6805 24.8903 24.0415 28.521C21.4013 32.1528 18.0542 34.4792 14 35.5ZM14 31.825C17.0333 30.8625 19.5417 28.9375 21.525 26.05C23.5083 23.1625 24.5 19.9542 24.5 16.425V8.15625L14 4.21875L3.5 8.15625V16.425C3.5 19.9542 4.49167 23.1625 6.475 26.05C8.45833 28.9375 10.9667 30.8625 14 31.825Z" fill="#EB5A61"/>
</svg>
