<svg width="42" height="42" viewBox="0 0 42 42" fill="none" xmlns="http://www.w3.org/2000/svg">
<path d="M36.75 35H35V8.75C35 8.28587 34.8156 7.84075 34.4874 7.51256C34.1593 7.18437 33.7141 7 33.25 7C32.7859 7 32.3407 7.18437 32.0126 7.51256C31.6844 7.84075 31.5 8.28587 31.5 8.75V35H28V15.75C28 15.2859 27.8156 14.8408 27.4874 14.5126C27.1592 14.1844 26.7141 14 26.25 14C25.7859 14 25.3408 14.1844 25.0126 14.5126C24.6844 14.8408 24.5 15.2859 24.5 15.75V35H21V22.75C21 22.2859 20.8156 21.8408 20.4874 21.5126C20.1592 21.1844 19.7141 21 19.25 21C18.7859 21 18.3408 21.1844 18.0126 21.5126C17.6844 21.8408 17.5 22.2859 17.5 22.75V35H14V29.75C14 29.2859 13.8156 28.8407 13.4874 28.5126C13.1592 28.1844 12.7141 28 12.25 28C11.7859 28 11.3408 28.1844 11.0126 28.5126C10.6844 28.8407 10.5 29.2859 10.5 29.75V35H7V5.25C7 4.78587 6.81563 4.34075 6.48744 4.01256C6.15925 3.68437 5.71413 3.5 5.25 3.5C4.78587 3.5 4.34075 3.68437 4.01256 4.01256C3.68437 4.34075 3.5 4.78587 3.5 5.25V36.75C3.5 37.2141 3.68437 37.6592 4.01256 37.9874C4.34075 38.3156 4.78587 38.5 5.25 38.5H36.75C37.2141 38.5 37.6592 38.3156 37.9874 37.9874C38.3156 37.6592 38.5 37.2141 38.5 36.75C38.5 36.2859 38.3156 35.8408 37.9874 35.5126C37.6592 35.1844 37.2141 35 36.75 35Z" fill="#34C899"/>
</svg>
